<svg xmlns="http://www.w3.org/2000/svg" viewBox="0 0 1000 600" width="100" height="60">
  <rect width="1000" height="600" fill="#2E77BC" rx="40" ry="40"/>
  <path d="M 500,130 L 590,290 L 500,450 L 750,450 L 750,410 L 670,410 L 700,350 L 770,350 L 770,310 L 720,310 L 750,250 L 780,250 L 800,210 L 730,210 L 750,170 L 800,170 L 820,130 Z" fill="white"/>
  <path d="M 380,130 L 180,130 L 180,170 L 350,170 L 380,230 L 180,230 L 180,270 L 350,270 L 380,330 L 180,330 L 180,370 L 350,370 L 380,430 L 180,430 L 180,450 L 435,450 L 329,290 Z" fill="white"/>
</svg> 