<svg xmlns="http://www.w3.org/2000/svg" viewBox="0 0 800 600" width="100" height="60">
  <rect width="800" height="600" fill="white" rx="30" ry="30"/>
  <path d="M 230,150 Q 300,140 350,150 Q 400,160 410,200 Q 420,240 410,300 Q 400,350 350,370 Q 300,380 230,370 L 200,450 L 150,450 L 200,200 Z" fill="#003087"/>
  <path d="M 250,180 Q 320,175 345,180 Q 380,190 390,220 Q 400,260 390,300 Q 380,320 355,330 Q 320,340 260,330 L 240,390 L 200,390 L 230,250 Z" fill="#009cde"/>
  <path d="M 430,150 Q 500,140 550,150 Q 600,160 610,200 Q 620,240 610,300 Q 600,350 550,370 Q 500,380 430,370 L 400,450 L 350,450 L 400,200 Z" fill="#003087"/>
</svg> 