<svg xmlns="http://www.w3.org/2000/svg" viewBox="0 0 1000 660" width="100" height="60">
  <rect width="1000" height="660" fill="#0066B2" rx="50" ry="50"/>
  <polygon points="470,293 429,450 387,450 348,323 380,307 403,410 403,410 416,323 470,293" fill="#FFFFFF"/>
  <polygon points="524,300 484,450 530,450 570,300" fill="#FFFFFF"/>
  <path d="M659,300 L627,368 C621,380 607,388 593,388 L554,388 L585,300 Z" fill="#FFFFFF"/>
  <path d="M746,329 C746,354 722,355 701,355 L682,355 L692,310 L719,310 C736,310 746,318 746,329 Z M730,388 L762,300 L683,300 L637,450 L700,450 L709,414 L739,414 C800,414 829,384 829,340 C829,311 808,300 788,300 L730,300 Z" fill="#FFFFFF"/>
</svg> 